# xmcd CD database file
#
# Track frame offsets:
#	150
#	19015
#	39822
#
# Disc length: 743 seconds
#
# Revision: 0
# Processed by: cddbd v1.5.1PL0 Copyright (c) Steve Scherf et al.
# Submitted via: CDex 1.51
#
DISCID=1402e503
DTITLE=Soulhead - Fiesta
DYEAR=2005
DGENRE=Pop
TTITLE0=Fiesta
TTITLE1=meaning
TTITLE2=SOUNHEAD is BACK
EXTD=YEAR: 2005
EXTT0=
EXTT1=
EXTT2=
PLAYORDER=
